<svg t="1686712059662" class="icon" viewBox="0 0 1024 1024" version="1.1" xmlns="http://www.w3.org/2000/svg" p-id="10856" width="25" height="25"><path d="M844.8 354.56H460.8a25.6 25.6 0 0 1 0-51.2h384a25.6 25.6 0 0 1 0 51.2zM682.496 505.088H460.8a25.6 25.6 0 0 1 0-51.2h220.672a25.6 25.6 0 0 1 0 51.2zM844.8 655.872H460.8a25.6 25.6 0 0 1 0-51.2h384a25.6 25.6 0 0 1 0 51.2zM682.496 806.4H460.8a25.6 25.6 0 0 1 0-51.2h220.672a25.6 25.6 0 0 1 0 51.2zM260.352 467.712a107.776 107.776 0 1 1 107.776-107.776 108.032 108.032 0 0 1-107.776 107.776z m0-164.352a56.576 56.576 0 1 0 56.576 56.576 56.576 56.576 0 0 0-56.576-56.576zM260.352 773.632A107.776 107.776 0 1 1 368.128 665.6a108.032 108.032 0 0 1-107.776 108.032z m0-164.352a56.576 56.576 0 1 0 56.576 56.32 56.832 56.832 0 0 0-56.576-56.32z" fill="#515151" p-id="10857"></path><path d="M260.352 303.36a25.6 25.6 0 0 1-25.6-25.6V166.4a25.6 25.6 0 0 1 51.2 0v111.36a25.6 25.6 0 0 1-25.6 25.6zM260.352 883.2a25.6 25.6 0 0 1-25.6-25.6v-111.36a25.6 25.6 0 0 1 51.2 0v111.36a25.6 25.6 0 0 1-25.6 25.6zM260.352 609.28a25.6 25.6 0 0 1-25.6-25.6v-141.568a25.6 25.6 0 0 1 51.2 0v141.568a25.6 25.6 0 0 1-25.6 25.6z" fill="#515151" p-id="10858"></path></svg>