<svg t="1686037007471" class="icon" viewBox="0 0 1113 1024" version="1.1" xmlns="http://www.w3.org/2000/svg" p-id="9300" width="20" height="20"><path d="M971.662992 144.87634h-23.134833v-92.539332a46.269666 46.269666 0 0 0-46.269666-46.269667H282.244964A477.502956 477.502956 0 0 1 214.691252 0.514981a46.269666 46.269666 0 0 0-37.015733 10.642024 46.269666 46.269666 0 0 0-15.731687 35.164946v98.091693H138.808999a138.808999 138.808999 0 0 0-138.808999 138.808998v92.539333a138.808999 138.808999 0 0 0 138.808999 138.808999h59.687869a394.680254 394.680254 0 0 0 311.394855 225.795972v190.631025h-231.348332a46.269666 46.269666 0 0 0 0 92.539332h555.235996a46.269666 46.269666 0 0 0 0-92.539332h-231.348332v-185.078665a24.522923 24.522923 0 0 0 0-5.55236 393.75486 393.75486 0 0 0 311.394854-225.795972h60.150567a138.808999 138.808999 0 0 0 138.808999-138.808999v-92.539333A138.808999 138.808999 0 0 0 971.662992 144.87634z m-832.853993 277.617998a46.269666 46.269666 0 0 1-46.269666-46.269666v-92.539333a46.269666 46.269666 0 0 1 46.269666-46.269666h23.134833v112.897986a374.3216 374.3216 0 0 0 6.94045 72.180679z m717.179828-72.180679a300.752831 300.752831 0 0 1-601.505662 0V98.143977h601.505662z m161.943832 25.911013a46.269666 46.269666 0 0 1-46.269667 46.269666h-30.075283a416.426997 416.426997 0 0 0 6.94045-72.180679V237.415673h23.134833a46.269666 46.269666 0 0 1 46.269667 46.269666z" fill="#1296db" p-id="9301"></path></svg>