<svg t="1686034162800" class="icon" viewBox="0 0 1027 1024" version="1.1" xmlns="http://www.w3.org/2000/svg" p-id="2491" width="20" height="20"><path d="M513.634 137.13H35.092C16.284 137.13 0.92 152.384 0.92 171.186l-0.919 738.858c0 18.921 15.253 34.173 34.173 34.173h351.022l9.516 18.691c5.852 11.468 17.551 18.696 30.508 18.696H604.114c12.498 0 23.966-6.882 30.041-17.778l10.67-19.491h348.61c18.809 0 34.176-15.253 34.176-34.173V171.303c0-18.808-15.256-34.173-34.176-34.173H513.634z m0 0" fill="#2A95D4" p-id="2492"></path><path d="M521.09 134.376c-6.079 4.131-13.877 4.933-20.641 1.954-37.5-16.52-164.908-68.124-285.318-68.124H93.002c-11.697 0-21.216 9.521-21.216 21.216v764.43c0 11.697 9.519 21.217 21.216 21.217h376.483c6.191 0 12.043 2.637 16.053 7.335l10.096 11.585c8.371 9.631 23.277 9.749 31.765 0.342l11.238-12.269c4.01-4.474 9.743-6.993 15.706-6.993h377.059c11.697 0 21.211-9.52 21.211-21.217l1.033-764.43c0-11.808-9.517-21.328-21.217-21.328H803.653c0 0.113-178.44-4.701-282.563 66.282z m0 0" fill="#FFFFFF" p-id="2493"></path><path d="M513.288 942.498l-35.892-41.284c-4.017-4.703-9.861-7.341-16.054-7.341H72.476c-11.699 0-21.21-9.514-21.21-21.211V62.361c0-11.697 9.512-21.216 21.21-21.216h144.952c115.364 0 234.624 44.724 283.479 65.251 6.424 2.637 13.648 2.064 19.491-1.49 108.374-66.97 274.884-63.991 286.004-63.762h151.483c11.814 0 21.334 9.519 21.219 21.328l-1.15 810.301c0 11.697-9.511 21.216-21.211 21.216H566.845a21.124 21.124 0 0 0-15.712 6.994l-37.845 41.515z m-416.27-94.495h385.31c6.196 0 12.04 2.637 16.056 7.341 8.371 9.631 23.282 9.748 31.766 0.347l0.686-0.688a21.125 21.125 0 0 1 15.712-6.999H932.084l1.038-761.1h-127.75c-1.837 0-183.143-4.013-277.75 68.458l-0.798 0.58c-6.308 4.814-14.907 5.732-22.136 2.287l-0.915-0.458c-1.953-0.92-150.456-70.868-286.458-70.868H97.018v761.1z m0 0" fill="#8A8A8A" p-id="2494"></path><path d="M490.699 146.65h45.871v765.46h-45.871z" fill="#8A8A8A" p-id="2495"></path><path d="M587.826 251.576h293.574v45.871H587.826v-45.871z m0 173.733h293.574v45.871H587.826v-45.871z m0 193.113h293.574v45.87H587.826v-45.87zM146.325 251.459h293.571v45.87H146.325v-45.87z m0 173.85h293.571v45.871H146.325v-45.871z m0 193.113h293.571v45.87H146.325v-45.87z m0 0" fill="#CDCDCD" p-id="2496"></path></svg>