<svg t="1686036416674" class="icon" viewBox="0 0 1024 1024" version="1.1" xmlns="http://www.w3.org/2000/svg" p-id="3354" width="20" height="20"><path d="M928 224V128h-32V96h-96v32h-32v9.28a224 224 0 0 0-179.2 22.72H544V96h-96v64h-64v192H192a96 96 0 0 0-96 96v384a96 96 0 0 0 96 96h640a96 96 0 0 0 96-96V448a96 96 0 0 0-7.68-37.76A225.6 225.6 0 0 0 928 352a224 224 0 0 0-32-115.2V224z" fill="#FFFFFF" p-id="3355"></path><path d="M704 352m-192 0a192 192 0 1 0 384 0 192 192 0 1 0-384 0Z" fill="#E9EAEB" p-id="3356"></path><path d="M832 384h-224v-64h-192v64H192a64 64 0 0 0-64 64v384a64 64 0 0 0 64 64h640a64 64 0 0 0 64-64V448a64 64 0 0 0-64-64z" fill="#FFFFFF" p-id="3357"></path><path d="M704 640v128H320v-128H128v192a64 64 0 0 0 64 64h640a64 64 0 0 0 64-64v-192z" fill="#A3D4FF" p-id="3358"></path><path d="M832 384h-160v32h160a32 32 0 0 1 32 32v192h-160v128H320v-128H160v-192a32 32 0 0 1 32-32h160v-32H192a64 64 0 0 0-64 64v384a64 64 0 0 0 64 64h640a64 64 0 0 0 64-64V448a64 64 0 0 0-64-64z m-96 480H192a32 32 0 0 1-32-32v-160h128v128h448v-128h128v160a32 32 0 0 1-32 32z" fill="#2A5082" p-id="3359"></path><path d="M512 672l192-192H320l192 192z" fill="#A3D4FF" p-id="3360"></path><path d="M608 288h-32V256h32zM512 672l192-192h-96v-160h-32v160h-128V256h-32v224h-96z m114.88-160L512 626.88 397.12 512zM448 224h-32V192h32zM512 160h-32V128h32zM608 224h-32V192h32z" fill="#2A5082" p-id="3361"></path><path d="M512 384h-32V224h32z" fill="#2A5082" p-id="3362"></path><path d="M800 160h96v32h-96z" fill="#BCC0C4" p-id="3363"></path><path d="M864 128v96h-32V128zM832 288h-32V256h-32v32h-32v32h32v32h32v-32h32V288z" fill="#BCC0C4" p-id="3364"></path></svg>