<svg t="1686127190783" class="icon" viewBox="0 0 1024 1024" version="1.1" xmlns="http://www.w3.org/2000/svg" p-id="3435" width="20" height="20"><path d="M584.145455 937.890909h-144.29091l-48.872727-132.654545-134.981818 72.145454-104.727273-114.036363 72.145455-130.327273-137.309091-34.909091v-148.945455l134.981818-48.872727-69.818182-134.981818 111.709091-111.709091 128 79.127273 39.563637-146.618182h160.581818l34.909091 125.672727L758.690909 162.909091l114.036364 102.4-74.472728 130.327273 139.636364 41.890909v137.309091L800.581818 628.363636l69.818182 134.981819-104.727273 93.090909-132.654545-60.509091-48.872727 141.963636z m-111.709091-46.545454h76.8l51.2-155.927273 153.6 67.490909 55.854545-48.872727-76.8-148.945455 155.927273-60.509091v-72.145454l-160.581818-48.872728 83.781818-148.945454-65.163637-58.181818-155.927272 58.181818-39.563637-139.636364H465.454545l-46.545454 172.218182-148.945455-93.090909L209.454545 274.618182l79.127273 151.272727-155.927273 55.854546v79.127272l160.581819 41.890909L209.454545 756.363636l58.181819 62.836364 151.272727-81.454545 53.527273 153.6z" fill="#FF9300" p-id="3436"></path><path d="M516.654545 691.2c-97.745455 0-179.2-79.127273-179.2-179.2s79.127273-179.2 179.2-179.2 179.2 79.127273 179.2 179.2-81.454545 179.2-179.2 179.2z m0-311.854545c-72.145455 0-132.654545 60.509091-132.654545 132.654545s60.509091 132.654545 132.654545 132.654545 132.654545-60.509091 132.654546-132.654545c-2.327273-72.145455-60.509091-132.654545-132.654546-132.654545z" fill="#FF9300" p-id="3437"></path></svg>